<svg xmlns="http://www.w3.org/2000/svg" viewBox="0 0 256 256"><defs><style>.cls-1{fill:#fff;}.cls-2,.cls-4{fill:#e62065;}.cls-3{fill:#be9ac7;}.cls-4{stroke:#37276c;stroke-miterlimit:10;}.cls-5{fill:#37276c;}</style></defs><g id="Layer_2" data-name="Layer 2"><g id="Calque_1" data-name="Calque 1"><rect class="cls-1" width="256" height="256"/><path class="cls-2" d="M37.2,207l-1.66,5.27A4.36,4.36,0,0,0,31.65,209c-3.38-.55-5.45,2.41-5.45,5.37l-.11-.05v15.3h-5.5V211l-3.23-2.21,3.13-4.52,4.7,3.21a7.35,7.35,0,0,1,5.6-2.91C36.5,204.57,37.2,207,37.2,207Z"/><path class="cls-2" d="M61.14,218.67H42.25A6.83,6.83,0,0,0,49,224.14a6.74,6.74,0,0,0,5.81-3.21l4,3.87A12.32,12.32,0,1,1,49,205.07,12.38,12.38,0,0,1,61.09,215h0ZM49,210.59A6.87,6.87,0,0,0,42.56,215H55.33A6.8,6.8,0,0,0,49,210.59Z"/><path class="cls-2" d="M79,222.69a7.35,7.35,0,0,1-4.35,6.22,8.38,8.38,0,0,1-3.48.75,11.28,11.28,0,0,1-8.89-4.92l4.55-3c1.16,1.76,3.73,3.12,5.55,2.26a2.13,2.13,0,0,0,1.21-1.6c0-.61-.3-1.51-3.63-2.61l-.61-.25c-1.87-.56-4.44-1.41-5.86-3.82a7.35,7.35,0,0,1-.45-6.57,8,8,0,0,1,5.05-4.47,9.92,9.92,0,0,1,7.83.76A6.46,6.46,0,0,1,79,210.09l-5.41.86A1.1,1.1,0,0,0,73,210a4.5,4.5,0,0,0-3.28-.2A2.74,2.74,0,0,0,68,211.25a2,2,0,0,0,.15,1.7c.35.66,1.62,1.06,2.83,1.46l.65.2C73.56,215.26,79.32,217.22,79,222.69Z"/><path class="cls-2" d="M107.85,217.37a12.35,12.35,0,0,1-12.37,12.29,12.21,12.21,0,0,1-6.87-2.31v8.73h-5.5V211l-3.24-2.21L83,204.27l5.6,3.82v.15a11.64,11.64,0,0,1,7.22-3.17A12.06,12.06,0,0,1,107.85,217.37Zm-5.55,0a6.82,6.82,0,1,0-6.82,6.77A6.81,6.81,0,0,0,102.3,217.37Z"/><path class="cls-2" d="M133.81,217.67a12.38,12.38,0,1,1-12.37-12.29A12.36,12.36,0,0,1,133.81,217.67Zm-5.56,0a6.84,6.84,0,1,0-6.81,6.82A6.83,6.83,0,0,0,128.25,217.67Z"/><path class="cls-2" d="M160.47,217.37v12.29h-5.55V217.37a6.84,6.84,0,0,0-6.82-6.78,7,7,0,0,0-4.75,1.86,8.29,8.29,0,0,0-1.16,1.51v15.7h-5.5V211l-3.24-2.21,3.14-4.52,5.6,3.82v.45a9,9,0,0,1,6.57-3.36C160.47,205.18,160.47,214.31,160.47,217.37Z"/><path class="cls-2" d="M179,222.69a7.34,7.34,0,0,1-4.34,6.22,8.38,8.38,0,0,1-3.48.75,11.28,11.28,0,0,1-8.89-4.92l4.54-3c1.17,1.76,3.74,3.12,5.56,2.26a2.13,2.13,0,0,0,1.21-1.6c0-.61-.3-1.51-3.63-2.61l-.61-.25c-1.87-.56-4.45-1.41-5.86-3.82a7.35,7.35,0,0,1-.45-6.57,8,8,0,0,1,5-4.47,9.9,9.9,0,0,1,7.82.76,6.41,6.41,0,0,1,3.08,4.66l-5.4.86a1.1,1.1,0,0,0-.55-.91,4.53,4.53,0,0,0-3.29-.2,2.72,2.72,0,0,0-1.71,1.41,2,2,0,0,0,.15,1.7c.35.66,1.61,1.06,2.82,1.46l.66.2C173.6,215.26,179.36,217.22,179,222.69Z"/><path class="cls-2" d="M181.33,199.56a3,3,0,1,1,3,3A3,3,0,0,1,181.33,199.56Zm5.5,11.44v18.66h-5.5V208.09l5.6-3.82,3.13,4.52Z"/><path class="cls-2" d="M205,229.66l-5.1,0L190,205.07h6l6.57,16.31,6.91-16.31h6Z"/><path class="cls-2" d="M238.64,218.67H219.76a6.82,6.82,0,0,0,6.71,5.47,6.74,6.74,0,0,0,5.81-3.21l4,3.87a12.32,12.32,0,1,1-9.8-19.73A12.38,12.38,0,0,1,238.59,215h0Zm-12.17-8.08a6.87,6.87,0,0,0-6.41,4.42h12.77A6.8,6.8,0,0,0,226.47,210.59Z"/><ellipse class="cls-3" cx="128" cy="112.4" rx="64.71" ry="64.29"/><polygon class="cls-4" points="146.54 172.06 104.37 179.47 77.29 27.32 119.45 19.91 146.54 172.06"/><polygon class="cls-1" points="111.69 178.19 111.11 178.29 84.03 26.14 84.61 26.04 111.69 178.19"/><polygon class="cls-5" points="112.77 178 111.69 178.19 84.61 26.04 85.69 25.85 112.77 178"/><polygon class="cls-5" points="111.11 178.29 110.03 178.48 82.95 26.33 84.03 26.14 111.11 178.29"/><polygon class="cls-5" points="119.79 176.76 118.72 176.95 91.63 24.8 92.71 24.61 119.79 176.76"/><polygon class="cls-5" points="118.14 177.05 117.06 177.24 89.98 25.09 91.06 24.91 118.14 177.05"/><polygon class="cls-5" points="126.82 175.53 125.74 175.72 98.66 23.57 99.74 23.38 126.82 175.53"/><polygon class="cls-5" points="125.17 175.82 124.09 176.01 97.01 23.86 98.09 23.67 125.17 175.82"/><polygon class="cls-5" points="133.85 174.29 132.77 174.48 105.69 22.33 106.77 22.14 133.85 174.29"/><polygon class="cls-5" points="132.19 174.58 131.12 174.77 104.04 22.62 105.11 22.43 132.19 174.58"/><polygon class="cls-5" points="140.87 173.06 139.8 173.25 112.72 21.1 113.79 20.91 140.87 173.06"/><polygon class="cls-5" points="139.22 173.35 138.14 173.54 111.06 21.39 112.14 21.2 139.22 173.35"/><polygon class="cls-1" points="118.72 176.95 118.14 177.05 91.06 24.91 91.63 24.8 118.72 176.95"/><polygon class="cls-1" points="125.74 175.72 125.17 175.82 98.09 23.67 98.66 23.57 125.74 175.72"/><polygon class="cls-1" points="132.77 174.48 132.19 174.58 105.11 22.43 105.69 22.33 132.77 174.48"/><polygon class="cls-1" points="139.8 173.25 139.22 173.35 112.14 21.2 112.72 21.1 139.8 173.25"/><polygon class="cls-5" points="104.7 165.76 104 167.36 105.76 167.84 104.7 165.76"/><polygon class="cls-5" points="110.95 148.66 110.09 149.4 110.7 150.08 110.95 148.66"/><polygon class="cls-5" points="142.06 164.11 141.09 165.36 142.38 165.92 142.06 164.11"/><polygon class="cls-5" points="136.8 146.77 138.03 148.13 137.75 146.6 136.8 146.77"/><polygon class="cls-5" points="100.55 131.17 101.7 131.63 100.85 132.89 100.55 131.17"/><polygon class="cls-5" points="119.52 124.08 118.49 125.81 119.87 126.08 119.52 124.08"/><polygon class="cls-5" points="127.63 134.29 128.47 135.25 128.57 133.32 127.63 134.29"/><polygon class="cls-5" points="100.7 93.29 99.61 94.29 100.99 94.94 100.7 93.29"/><polygon class="cls-5" points="90.51 81.46 91.81 82.11 91.57 80.76 90.51 81.46"/><polygon class="cls-5" points="108.58 173.28 107.81 174.08 108.84 174.78 108.58 173.28"/><polygon class="cls-5" points="142.08 153.85 141.32 154.64 142.35 155.34 142.08 153.85"/><polygon class="cls-5" points="144.49 169.03 145.69 169.93 144.74 170.46 144.49 169.03"/><polygon class="cls-5" points="120.24 169.81 119.64 170.97 120.85 171.13 120.24 169.81"/><polygon class="cls-5" points="116.08 23.16 117.32 21.52 117.62 23.18 116.08 23.16"/><polygon class="cls-5" points="119.42 27.19 120.3 28.01 119.62 28.33 119.42 27.19"/><polygon class="cls-5" points="116.93 33.76 116.26 34.76 117.14 34.95 116.93 33.76"/><polygon class="cls-5" points="88.96 38.48 89.58 38.91 89.1 39.27 88.96 38.48"/><polygon class="cls-5" points="80.48 29.71 79.83 30.22 80.64 30.57 80.48 29.71"/><polygon class="cls-5" points="85.67 46.08 85.16 46.81 86.04 47.05 85.67 46.08"/><polygon class="cls-5" points="94.39 61.43 95.09 61.8 94.56 62.39 94.39 61.43"/><polygon class="cls-5" points="98.81 46.03 99.84 45.16 100.07 46.49 98.81 46.03"/><polygon class="cls-5" points="122.77 56.45 123.77 57.75 122.67 57.94 122.77 56.45"/><polygon class="cls-5" points="117.41 69.47 118.8 70.11 117.66 70.9 117.41 69.47"/><polygon class="cls-5" points="129.35 99.38 130.82 100.59 129.6 100.81 129.35 99.38"/><polygon class="cls-5" points="113.94 90.5 113.78 91.84 114.88 92.5 113.94 90.5"/><polygon class="cls-5" points="109.9 106.14 110.8 106.76 110.29 108.33 109.9 106.14"/><polygon class="cls-5" points="95.88 119.25 95.2 119.86 96.07 120.35 95.88 119.25"/><polygon class="cls-5" points="133.01 103.2 132.33 103.81 133.2 104.3 133.01 103.2"/><polygon class="cls-5" points="92.61 103.09 93.38 103.54 93.23 102.68 92.61 103.09"/><polygon class="cls-5" points="131.42 98.43 132.19 98.88 132.04 98.02 131.42 98.43"/><polygon class="cls-5" points="138.49 139.09 137.91 140.81 138.86 141.16 139.08 139.54 138.49 139.09"/><polygon class="cls-5" points="101.91 116.79 103.22 115.51 102.53 114.78 101.6 116.12 101.91 116.79"/><polygon class="cls-5" points="115.61 61.64 117.23 62.49 117.73 61.61 116.16 61.14 115.61 61.64"/><polygon class="cls-5" points="84.99 41.3 83.42 42.23 83.92 43.11 85.14 42.03 84.99 41.3"/><polygon class="cls-5" points="119.45 38.83 121.12 38.09 120.73 37.16 119.39 38.09 119.45 38.83"/><polygon class="cls-5" points="88.8 29.08 90.53 29.66 90.88 28.72 89.25 28.5 88.8 29.08"/><polygon class="cls-5" points="89.9 89.67 91.2 88.4 90.51 87.66 89.58 89 89.9 89.67"/><polygon class="cls-5" points="104.34 155.33 105.08 156.99 106.02 156.61 105.09 155.27 104.34 155.33"/><path class="cls-5" d="M104.37,179.47l23.21-7A17.58,17.58,0,0,0,140,153L119.46,19.92l27.08,152.14Z"/><polygon class="cls-5" points="104.37 179.47 79.03 28.2 114.86 20.72 77.29 27.32 104.37 179.47"/><polygon class="cls-4" points="156.78 190.51 114.41 184.38 136.8 31.48 179.17 37.61 156.78 190.51"/><polygon class="cls-1" points="121.76 185.44 121.19 185.36 143.57 32.46 144.15 32.55 121.76 185.44"/><polygon class="cls-5" points="122.85 185.6 121.76 185.44 144.15 32.55 145.23 32.7 122.85 185.6"/><polygon class="cls-5" points="121.19 185.36 120.1 185.21 142.49 32.31 143.57 32.46 121.19 185.36"/><polygon class="cls-5" points="129.91 186.62 128.82 186.47 151.21 33.57 152.29 33.72 129.91 186.62"/><polygon class="cls-5" points="128.25 186.38 127.16 186.22 149.55 33.33 150.63 33.48 128.25 186.38"/><polygon class="cls-5" points="136.97 187.64 135.89 187.49 158.27 34.59 159.35 34.74 136.97 187.64"/><polygon class="cls-5" points="135.31 187.4 134.23 187.25 156.61 34.35 157.69 34.5 135.31 187.4"/><polygon class="cls-5" points="144.03 188.66 142.95 188.51 165.33 35.61 166.42 35.76 144.03 188.66"/><polygon class="cls-5" points="142.37 188.42 141.29 188.27 163.67 35.37 164.75 35.52 142.37 188.42"/><polygon class="cls-5" points="151.09 189.68 150.01 189.53 172.4 36.63 173.48 36.78 151.09 189.68"/><polygon class="cls-5" points="149.43 189.44 148.35 189.29 170.73 36.39 171.82 36.55 149.43 189.44"/><polygon class="cls-1" points="128.82 186.47 128.25 186.38 150.63 33.48 151.21 33.57 128.82 186.47"/><polygon class="cls-1" points="135.89 187.49 135.31 187.4 157.69 34.5 158.27 34.59 135.89 187.49"/><polygon class="cls-1" points="142.95 188.51 142.37 188.42 164.75 35.52 165.33 35.61 142.95 188.51"/><polygon class="cls-1" points="150.01 189.53 149.43 189.44 171.82 36.55 172.4 36.63 150.01 189.53"/><polygon class="cls-5" points="119.06 171.47 117.88 172.77 119.41 173.77 119.06 171.47"/><polygon class="cls-5" points="130.39 157.19 129.34 157.62 129.71 158.46 130.39 157.19"/><polygon class="cls-5" points="155.04 181.56 153.74 182.44 154.78 183.38 155.04 181.56"/><polygon class="cls-5" points="155.53 163.46 156.27 165.13 156.49 163.6 155.53 163.46"/><polygon class="cls-5" points="126.05 137.33 126.99 138.13 125.79 139.06 126.05 137.33"/><polygon class="cls-5" points="146.3 136.52 144.78 137.84 146 138.53 146.3 136.52"/><polygon class="cls-5" points="150.78 148.75 151.27 149.92 151.98 148.12 150.78 148.75"/><polygon class="cls-5" points="138.16 101.42 136.82 102.03 137.92 103.07 138.16 101.42"/><polygon class="cls-5" points="132.23 87 133.26 88.03 133.46 86.67 132.23 87"/><polygon class="cls-5" points="120.36 179.82 119.38 180.34 120.14 181.33 120.36 179.82"/><polygon class="cls-5" points="158.31 171.82 157.33 172.34 158.09 173.33 158.31 171.82"/><polygon class="cls-5" points="155.8 186.99 156.65 188.22 155.59 188.43 155.8 186.99"/><polygon class="cls-5" points="132.53 180.16 131.59 181.08 132.69 181.6 132.53 180.16"/><polygon class="cls-5" points="174.94 39.63 176.63 38.46 176.39 40.14 174.94 39.63"/><polygon class="cls-5" points="176.83 44.5 177.41 45.56 176.66 45.65 176.83 44.5"/><polygon class="cls-5" points="172.39 49.97 171.44 50.71 172.22 51.16 172.39 49.97"/><polygon class="cls-5" points="144.35 45.72 144.8 46.32 144.23 46.51 144.35 45.72"/><polygon class="cls-5" points="139.07 34.74 138.29 35.02 138.95 35.6 139.07 34.74"/><polygon class="cls-5" points="138.82 51.9 138.1 52.44 138.87 52.94 138.82 51.9"/><polygon class="cls-5" points="142.25 69.2 142.79 69.77 142.11 70.16 142.25 69.2"/><polygon class="cls-5" points="151.31 55.96 152.56 55.45 152.37 56.79 151.31 55.96"/><polygon class="cls-5" points="170.77 73.33 171.3 74.87 170.2 74.71 170.77 73.33"/><polygon class="cls-5" points="161.56 84.01 162.68 85.06 161.35 85.45 161.56 84.01"/><polygon class="cls-5" points="163.44 116.14 164.46 117.75 163.23 117.57 163.44 116.14"/><polygon class="cls-5" points="151.61 102.9 151.04 104.12 151.88 105.09 151.61 102.9"/><polygon class="cls-5" points="142.84 116.48 143.5 117.36 142.52 118.68 142.84 116.48"/><polygon class="cls-5" points="125.38 124.56 124.54 124.93 125.22 125.66 125.38 124.56"/><polygon class="cls-5" points="165.71 120.91 164.87 121.28 165.55 122.01 165.71 120.91"/><polygon class="cls-5" points="127.39 108.19 127.98 108.86 128.1 108 127.39 108.19"/><polygon class="cls-5" points="165.71 115.88 166.3 116.55 166.42 115.69 165.71 115.88"/><polygon class="cls-5" points="159.57 156.69 158.47 158.14 159.27 158.77 159.99 157.31 159.57 156.69"/><polygon class="cls-5" points="131.89 124.1 133.53 123.3 133.11 122.38 131.8 123.37 131.89 124.1"/><polygon class="cls-5" points="162.33 76.02 163.6 77.33 164.35 76.65 163.01 75.71 162.33 76.02"/><polygon class="cls-5" points="139.69 47.16 137.9 47.55 138.09 48.54 139.6 47.89 139.69 47.16"/><polygon class="cls-5" points="173.19 55.56 175 55.38 174.93 54.37 173.36 54.84 173.19 55.56"/><polygon class="cls-5" points="147.16 36.74 148.62 37.83 149.26 37.05 147.78 36.33 147.16 36.74"/><polygon class="cls-5" points="129.06 94.61 130.7 93.81 130.27 92.89 128.97 93.87 129.06 94.61"/><polygon class="cls-5" points="122.02 161.45 122.19 163.26 123.2 163.19 122.74 161.63 122.02 161.45"/><polygon class="cls-5" points="114.41 184.38 138.17 32.85 174.54 36.94 136.8 31.48 114.41 184.38"/><polygon class="cls-5" points="115.42 177.53 115.03 177.59 129.51 76.29 129.9 78.6 115.42 177.53"/></g></g></svg>